<svg xmlns="http://www.w3.org/2000/svg" viewBox="0 0 3333.93 2342.14"><defs><style>.cls-1{fill:#100c08;}.cls-2,.cls-3{fill:#f5b01f;}.cls-3{font-size:128.4px;font-family:Montserrat-Bold, Montserrat;font-weight:700;letter-spacing:0.05em;}.cls-4{letter-spacing:0.04em;}.cls-5{letter-spacing:0.05em;}.cls-6{letter-spacing:0.05em;}.cls-7{letter-spacing:0.05em;}.cls-8{letter-spacing:0.03em;}.cls-9{letter-spacing:0.04em;}</style></defs><g id="Layer_3" data-name="Layer 3"><path class="cls-1" d="M696.28,1417.75H679.43c-3.15,0-4.73,0-6.83-3.43l-47.14-78.42h-6.83c-8.69,0-15-.28-29-.79v77.36c0,2.64-1.84,5.28-4.74,5.28H570.71a5,5,0,0,1-4.74-5.28V1228.23c0-3.68,1.58-5.27,6.31-5.8,11.33-1.31,31.08-2.11,46.35-2.11,41.58,0,73.71,14,73.71,56.61v1.85c0,29.47-17.38,46.85-41.33,53.15l47.91,80a4.4,4.4,0,0,1,.79,2.36,3.34,3.34,0,0,1-3.43,3.43m-27.65-140.82c0-26.34-17.1-35-50-35-8.17,0-22.65,0-29,.79v72.13c11.58.26,22.9.53,29,.53,32.38,0,50-8.16,50-36.58Z"/><path class="cls-1" d="M1032.89,1418.28c-10,1-35.79,1.31-51.31,1.31-36.87,0-56.08-13.95-56.08-49V1269.28c0-35,19.21-49,56.08-49,15.52,0,40.27.54,51.31,1.59,1.59.26,2.64,2.1,2.64,3.69v13.16a2.83,2.83,0,0,1-2.9,3.15h-50.8c-27.9,0-32.38,7.37-32.38,27.37v36.59h80.83a5.28,5.28,0,0,1,5.25,5.27v10a5.26,5.26,0,0,1-5.25,5.25H949.45v44.23c0,20,4.48,27.38,32.38,27.38h50.8a2.83,2.83,0,0,1,2.9,3.15v13.44c0,1.56-1,3.4-2.64,3.68"/><path class="cls-1" d="M1311.6,1419.59a262.16,262.16,0,0,1-43.7-3.69c-4.48-.79-5-1.84-5-4.73v-10.53c0-2.89,2.11-4.22,4.49-4.22h.79c12.09,1,31.31,1.59,43.42,1.59,31.6,0,40-12.65,40-31.06,0-13.16-7.63-20.54-31.59-35.27l-25.53-15.54c-24.22-14.73-36.33-28.17-36.33-49.22,0-31.85,22.89-46.6,62.91-46.6,15.54,0,35.79,1.59,45.8,3.15,2.64.54,4.48,1.85,4.48,4.48v11.32c0,2.64-1.84,4.22-4.48,4.22h-.53c-11.58-.79-30-1.58-45.27-1.58-27.12,0-38.69,5.79-38.69,25,0,12.37,8.68,19.74,28.68,31.85l24.22,14.47c30.54,18.18,41.33,32.64,41.33,53.71,0,25.27-13.16,52.64-65,52.64"/><path class="cls-1" d="M1712.69,1418.28c-10,1-35.8,1.31-51.32,1.31-36.86,0-56.07-13.95-56.07-49V1269.28c0-35,19.21-49,56.07-49,15.52,0,40.28.54,51.32,1.59,1.58.26,2.63,2.1,2.63,3.69v13.16a2.83,2.83,0,0,1-2.89,3.15h-50.8c-27.91,0-32.39,7.37-32.39,27.37v36.59h80.83a5.27,5.27,0,0,1,5.25,5.27v10a5.25,5.25,0,0,1-5.25,5.25h-80.83v44.23c0,20,4.48,27.38,32.39,27.38h50.8a2.83,2.83,0,0,1,2.89,3.15v13.44c0,1.56-1,3.4-2.63,3.68"/><path class="cls-1" d="M2075.64,1417.75h-16.85c-3.15,0-4.73,0-6.84-3.43l-47.13-78.42H1998c-8.68,0-15-.28-29-.79v77.36c0,2.64-1.84,5.28-4.73,5.28h-14.21a5,5,0,0,1-4.74-5.28V1228.23c0-3.68,1.56-5.27,6.3-5.8,11.34-1.31,31.08-2.11,46.34-2.11,41.59,0,73.72,14,73.72,56.61v1.85c0,29.47-17.39,46.85-41.33,53.15l47.91,80a4.4,4.4,0,0,1,.79,2.36,3.34,3.34,0,0,1-3.43,3.43M2048,1276.93c0-26.34-17.11-35-50-35-8.16,0-22.63,0-29,.79v72.13c11.58.26,22.9.53,29,.53,32.39,0,50-8.16,50-36.58Z"/><path class="cls-1" d="M2435.68,1228.23l-48.43,171.36c-4.75,16.57-16.84,20-26.85,20-9.75,0-22.12-3.43-26.86-20l-48.7-171.36a3.42,3.42,0,0,1-.26-1.58,4.5,4.5,0,0,1,4.74-4.48h15.26a5.32,5.32,0,0,1,4.74,3.94l45.8,167.67c1.05,3.69,2.38,5.53,5.28,5.53,2.63,0,3.94-1.84,5-5.53l46.07-167.67a5,5,0,0,1,4.48-3.94h15.54a4.29,4.29,0,0,1,4.48,4.48,3.2,3.2,0,0,1-.28,1.58"/><path class="cls-1" d="M2776,1417.75h-15.54c-2.36,0-3.94-1.85-4.48-4l-17.1-60.55h-68.18l-16.85,60.55a5.31,5.31,0,0,1-4.74,4h-15.52a4.23,4.23,0,0,1-4.48-4.2,4.52,4.52,0,0,1,.26-1.85l48.7-171.38c4.48-16,16.85-20,26.86-20,9.73,0,22.12,3.69,26.57,19.75l48.7,171.63a4.22,4.22,0,0,1,.28,1.85c0,2.35-1.58,4.2-4.48,4.2m-66.08-171.9c-.79-2.89-2.36-4.73-5-4.73-2.9,0-4.48,1.84-5.28,4.73l-23.94,86.62h58.17Z"/><path class="cls-1" d="M991.14,1082.83H729l-37.25,87.62H569.06L798.37,659.29H922.5l229.3,511.16H1028.39ZM860.42,774.68,772.06,982.07H948Z"/><path class="cls-1" d="M1550.41,793.66a180,180,0,0,0-119.75-45.27c-97.14,0-160.66,55.49-160.66,167.23,0,73,40.17,164.32,160.66,164.32a164.27,164.27,0,0,0,108.81-35.79V962.38h-122V867.44H1638v222.72c-43.82,62.8-113.9,94.93-208.11,94.93-197.15,0-271.64-136.56-271.64-269.45C1158.28,771.79,1243,644,1430.66,644a249,249,0,0,1,190.59,78.86Z"/><path class="cls-1" d="M2200,1163H2073.65L1942.93,995.06h-82.5V1163H1746.52V651.78H1989c123.41,0,189.14,82.5,189.14,172.33-.72,66.46-20.45,125.6-118.31,160.66l140.26,169.42ZM1860.43,749.63v149h130a71,71,0,0,0,75.1-66.56c.1-1.66.14-3.33.13-5a75.1,75.1,0,0,0-72.76-77.37c-1.31,0-2.61,0-3.92,0Z"/><path class="cls-2" d="M2514.64,633.64c-146.82,0-265.84,119-265.84,265.83s119,265.83,265.84,265.83,265.82-119,265.83-265.81-118.93-265.82-265.73-265.85Zm61.2,375.28-94.61-68.71a13,13,0,0,1-5.25-10.39V749.41a12.89,12.89,0,0,1,12.86-12.85h51.45a12.9,12.9,0,0,1,12.86,12.85V897l68,49.51a12.76,12.76,0,0,1,2.94,17.79l-.16.21-30.07,41.59a12.94,12.94,0,0,1-18,2.79"/><text class="cls-3" transform="translate(545.88 1674.35)">RES<tspan class="cls-4" x="280.54" y="0">P</tspan><tspan x="379.28" y="0">EI</tspan><tspan class="cls-4" x="519.61" y="0">T</tspan><tspan x="603.72" y="0">O </tspan><tspan class="cls-4" x="760.49" y="0">P</tspan><tspan class="cls-5" x="859.22" y="0">E</tspan><tspan class="cls-6" x="951.41" y="0">L</tspan><tspan class="cls-7" x="1035.77" y="0">A S</tspan><tspan class="cls-8" x="1270.47" y="0">U</tspan><tspan x="1375.76" y="0">A JORNA</tspan><tspan class="cls-9" x="2026.98" y="0">D</tspan><tspan x="2137.78" y="0">A</tspan></text></g></svg>